<svg width="299" height="57" viewBox="0 0 299 57" fill="none" xmlns="http://www.w3.org/2000/svg">
<line x1="293" y1="56.5" x2="14" y2="56.5" stroke="url(#paint0_linear_2_1883)"/>
<path d="M0 22C0 9.84974 9.84974 0 22 0H277C289.15 0 299 9.84974 299 22C299 34.1503 289.15 44 277 44H22C9.84974 44 0 34.1503 0 22Z" fill="url(#paint1_linear_2_1883)" fill-opacity="0.18"/>
<circle cx="36" cy="22" r="15.5" stroke="url(#paint2_linear_2_1883)"/>
<path fill-rule="evenodd" clip-rule="evenodd" d="M34.1284 15.4512C31.5978 15.4512 29.4531 17.3313 29.4531 19.76C29.4552 20.6583 29.7546 21.5306 30.3044 22.2403L29.8466 23.9212C29.7269 24.3633 30.1817 24.7642 30.6036 24.5881L32.6982 23.7136C32.8356 23.6562 32.9446 23.5466 33.0013 23.4087C33.0579 23.2709 33.0576 23.1161 33.0004 22.9785C32.9432 22.8408 32.8337 22.7316 32.6961 22.6748C32.5584 22.6181 32.4039 22.6184 32.2665 22.6757L31.2312 23.1081L31.4631 22.2561C31.4877 22.166 31.4895 22.0712 31.4683 21.9803C31.4472 21.8894 31.4038 21.8052 31.342 21.7353C30.8572 21.1875 30.5752 20.5018 30.5752 19.76C30.5752 18.0499 32.1147 16.5752 34.1284 16.5752C35.6844 16.5752 36.9643 17.4617 37.4603 18.6524C35.1114 18.842 33.1934 20.648 33.1934 22.9447C33.1934 25.3734 35.338 27.2535 37.8687 27.2535C38.4417 27.2535 38.993 27.1584 39.5025 26.9838L41.3935 27.7721C41.8154 27.9489 42.2702 27.5473 42.1506 27.1052L41.6928 25.4251C42.2425 24.7154 42.5419 23.8431 42.544 22.9447C42.544 20.7739 40.831 19.0421 38.6609 18.6981C38.1417 16.8023 36.2791 15.4512 34.1284 15.4512ZM34.3155 22.9447C34.3155 21.2355 35.855 19.76 37.8687 19.76C39.8825 19.76 41.422 21.2355 41.422 22.9447C41.422 23.6859 41.1399 24.3723 40.6552 24.92C40.5934 24.9899 40.55 25.0742 40.5288 25.1651C40.5077 25.256 40.5094 25.3508 40.534 25.4409L40.7659 26.2929L39.7306 25.8605C39.5955 25.8043 39.4438 25.8033 39.308 25.8575C38.8497 26.0386 38.3613 26.1309 37.8687 26.1295C35.855 26.1295 34.3155 24.6548 34.3155 22.9447Z" fill="#FFF7F7"/>
<circle cx="46.9112" cy="32.1847" r="5.09091" fill="black"/>
<circle cx="46.9112" cy="32.1847" r="5.59091" stroke="white" stroke-opacity="0.22"/>
<g filter="url(#filter0_f_2_1883)">
<path d="M43.2734 30.1232V33.0591H44.1179V31.1002L44.634 33.0542H45.3377L45.9007 31.0536L45.8538 33.0542H46.7921V30.1232H45.5254L45.0562 31.798L44.5871 30.1232H43.2734Z" fill="url(#paint3_linear_2_1883)" fill-opacity="0.44"/>
</g>
<path d="M43.5547 29.6641H44.8881" stroke="white" stroke-width="0.356402"/>
<path d="M45.125 33.8633H46.6496C46.6937 33.8633 46.7295 33.8988 46.7295 33.9425C46.7295 33.9863 46.7653 34.0216 46.8094 34.0216H48.9086" stroke="white" stroke-width="0.356402"/>
<mask id="mask0_2_1883" style="mask-type:luminance" maskUnits="userSpaceOnUse" x="49" y="29" width="1" height="1">
<path d="M49.7812 29.7285H49.9478V29.9314H49.7812V29.7285Z" fill="white"/>
</mask>
<g mask="url(#mask0_2_1883)">
<path d="M49.9472 29.7285V29.7644H49.886V29.9314H49.8428V29.7644H49.7812V29.7285H49.9472Z" fill="white"/>
</g>
<mask id="mask1_2_1883" style="mask-type:luminance" maskUnits="userSpaceOnUse" x="49" y="29" width="2" height="1">
<path d="M49.9766 29.7285H50.1753V29.9314H49.9766V29.7285Z" fill="white"/>
</mask>
<g mask="url(#mask1_2_1883)">
<path d="M50.1211 29.7285H50.1826V29.9314H50.1427V29.7941C50.1427 29.7902 50.1428 29.7846 50.1429 29.7775C50.143 29.7705 50.143 29.765 50.143 29.7611L50.1042 29.9314H50.0626L50.024 29.7611C50.024 29.765 50.0241 29.7705 50.0242 29.7775C50.0242 29.7846 50.0243 29.7902 50.0243 29.7941V29.9314H49.9844V29.7285H50.0467L50.084 29.8879L50.1211 29.7285Z" fill="white"/>
</g>
<mask id="mask2_2_1883" style="mask-type:luminance" maskUnits="userSpaceOnUse" x="49" y="32" width="2" height="1">
<path d="M49.8125 32.2676H50.5489V32.9978H49.8125V32.2676Z" fill="white"/>
</mask>
<g mask="url(#mask2_2_1883)">
<mask id="mask3_2_1883" style="mask-type:luminance" maskUnits="userSpaceOnUse" x="49" y="32" width="2" height="2">
<path d="M49.8125 32.9911L49.826 32.2637L50.5242 32.2765L50.5106 33.0038L49.8125 32.9911Z" fill="white"/>
</mask>
<g mask="url(#mask3_2_1883)">
<mask id="mask4_2_1883" style="mask-type:luminance" maskUnits="userSpaceOnUse" x="49" y="32" width="2" height="1">
<path d="M49.8203 32.6239L50.0886 32.5431L50.0937 32.2656L50.2543 32.4931L50.5226 32.4122L50.3535 32.6336L50.5142 32.8611L50.2491 32.7705L50.0802 32.9919L50.0854 32.7145L49.8203 32.6239Z" fill="white"/>
</mask>
<g mask="url(#mask4_2_1883)">
<path d="M49.8125 32.9891L49.826 32.2617L50.5242 32.2745L50.5106 33.0019L49.8125 32.9891Z" fill="white"/>
</g>
</g>
</g>
<path d="M47.2422 32.8689H49.8225V32.171H48.1805V31.7523H49.541V31.101H48.1805V30.6822H49.7756V29.9844H47.2422V32.8689Z" fill="white"/>
<path d="M43.5781 29.9375V35.0551H44.4226V30.9145L44.9387 32.8685H45.6424L46.2054 30.868L46.1584 32.8685H47.0967V29.9375H45.83L45.3609 31.6124L44.8917 29.9375H43.5781Z" fill="white"/>
<path d="M45.0807 33.5209L45.0613 33.279H45.0588L44.9745 33.5184H44.9187L44.8344 33.279H44.8319L44.8125 33.5209H44.7188L44.7557 33.113H44.8553L44.9465 33.3482L45.0378 33.113H45.1375L45.1744 33.5209H45.0807ZM45.5607 33.113V33.376C45.5607 33.4261 45.5471 33.4639 45.5198 33.4897C45.4925 33.5154 45.4527 33.5283 45.4002 33.5283C45.3476 33.5283 45.3078 33.5154 45.2805 33.4897C45.2532 33.4639 45.2396 33.4261 45.2396 33.376V33.113H45.3334V33.3489C45.3334 33.3817 45.3386 33.4047 45.349 33.4176C45.3595 33.4304 45.3765 33.4369 45.4002 33.4369C45.4238 33.4369 45.4409 33.4304 45.4513 33.4176C45.4617 33.4047 45.467 33.3817 45.467 33.3489V33.113H45.5607ZM45.7993 33.1055C45.8216 33.1055 45.8433 33.1087 45.8645 33.1152C45.886 33.1216 45.9017 33.128 45.9121 33.1342L45.9271 33.1441L45.889 33.2182C45.8861 33.2163 45.8819 33.2138 45.8765 33.2106C45.8713 33.2075 45.8613 33.2033 45.8468 33.1981C45.8321 33.1927 45.8184 33.1901 45.8058 33.1901C45.7902 33.1901 45.7781 33.1934 45.7696 33.2C45.7612 33.2066 45.7569 33.2156 45.7569 33.2266C45.7569 33.2324 45.759 33.2375 45.7629 33.2423C45.767 33.247 45.7738 33.2521 45.7834 33.2576C45.7931 33.263 45.8016 33.2673 45.8088 33.2706C45.8162 33.274 45.8275 33.2788 45.8427 33.2855C45.8693 33.2968 45.892 33.312 45.9108 33.3313C45.9295 33.3506 45.939 33.3724 45.939 33.3967C45.939 33.4202 45.9348 33.4406 45.9262 33.4581C45.9177 33.4756 45.9061 33.4893 45.8913 33.4991C45.8765 33.509 45.8602 33.5163 45.8422 33.5211C45.8243 33.5258 45.8048 33.5283 45.7839 33.5283C45.766 33.5283 45.7483 33.5264 45.7311 33.5228C45.7138 33.5192 45.6993 33.5146 45.6876 33.5093C45.676 33.5038 45.6655 33.4985 45.6562 33.4932C45.647 33.4879 45.6402 33.4835 45.6357 33.4798L45.6293 33.4744L45.6762 33.3963C45.6801 33.3996 45.6857 33.4038 45.6926 33.409C45.6996 33.4141 45.712 33.4208 45.7298 33.4295C45.7476 33.438 45.7633 33.4423 45.777 33.4423C45.8165 33.4423 45.8362 33.429 45.8362 33.4022C45.8362 33.3965 45.8348 33.3914 45.8319 33.3866C45.8292 33.3818 45.8242 33.3771 45.817 33.3724C45.8099 33.3676 45.8035 33.3638 45.7981 33.3609C45.7925 33.3581 45.7836 33.3538 45.7711 33.3481C45.7586 33.3423 45.7495 33.338 45.7435 33.3349C45.7186 33.3228 45.6993 33.3075 45.6857 33.2892C45.672 33.2709 45.6652 33.2513 45.6652 33.2302C45.6652 33.1936 45.6789 33.1637 45.7061 33.1404C45.7334 33.1171 45.7645 33.1055 45.7993 33.1055ZM46.1088 33.113V33.5209H46.0151V33.113H46.1088ZM46.4199 33.4369C46.4342 33.4369 46.448 33.4348 46.4616 33.4304C46.475 33.4261 46.4849 33.422 46.4912 33.418L46.5006 33.4116L46.5405 33.4907C46.5392 33.4916 46.5374 33.493 46.5351 33.4947C46.5327 33.4963 46.5273 33.4993 46.5189 33.5039C46.5105 33.5083 46.5014 33.5121 46.4917 33.5155C46.482 33.5188 46.4695 33.5217 46.4538 33.5243C46.4381 33.5269 46.422 33.5283 46.4054 33.5283C46.3672 33.5283 46.331 33.519 46.2968 33.5004C46.2625 33.4818 46.2349 33.4561 46.214 33.4236C46.193 33.3909 46.1826 33.3556 46.1826 33.3177C46.1826 33.289 46.1886 33.2615 46.2009 33.2351C46.2132 33.2088 46.2296 33.1862 46.2501 33.1674C46.2706 33.1486 46.2944 33.1336 46.3217 33.1224C46.349 33.1112 46.3769 33.1055 46.4054 33.1055C46.4321 33.1055 46.4566 33.1086 46.4789 33.1149C46.5014 33.1212 46.5173 33.1274 46.5266 33.1338L46.5405 33.1432L46.5006 33.2222C46.4983 33.2202 46.4948 33.2179 46.4901 33.2151C46.4855 33.2123 46.4763 33.2086 46.4623 33.204C46.4483 33.1993 46.4342 33.197 46.4199 33.197C46.3972 33.197 46.377 33.2007 46.3591 33.2078C46.3411 33.2151 46.3269 33.2246 46.3165 33.2366C46.3059 33.2484 46.2979 33.2612 46.2925 33.2748C46.2871 33.2886 46.2843 33.3025 46.2843 33.3167C46.2843 33.3476 46.296 33.3754 46.3193 33.4C46.3428 33.4246 46.3763 33.4369 46.4199 33.4369ZM47.0125 33.113V33.1946H46.8709V33.2756H47.0065V33.3572H46.8709V33.4393H47.0125V33.5209H46.7772V33.113H47.0125ZM47.4836 33.5209H47.3624L47.2652 33.382L47.1679 33.5209H47.0518L47.2074 33.3013L47.0778 33.113H47.1893L47.2652 33.2241L47.3409 33.113H47.4577L47.323 33.3013L47.4836 33.5209ZM47.7477 33.4369C47.762 33.4369 47.7758 33.4348 47.7893 33.4304C47.8028 33.4261 47.8127 33.422 47.8189 33.418L47.8283 33.4116L47.8683 33.4907C47.867 33.4916 47.8652 33.493 47.8628 33.4947C47.8605 33.4963 47.8551 33.4993 47.8466 33.5039C47.8382 33.5083 47.8292 33.5121 47.8195 33.5155C47.8098 33.5188 47.7972 33.5217 47.7816 33.5243C47.7659 33.5269 47.7498 33.5283 47.7332 33.5283C47.6949 33.5283 47.6587 33.519 47.6245 33.5004C47.5902 33.4818 47.5626 33.4561 47.5417 33.4236C47.5208 33.3909 47.5103 33.3556 47.5103 33.3177C47.5103 33.289 47.5164 33.2615 47.5286 33.2351C47.541 33.2088 47.5574 33.1862 47.5779 33.1674C47.5983 33.1486 47.6222 33.1336 47.6494 33.1224C47.6767 33.1112 47.7046 33.1055 47.7332 33.1055C47.7598 33.1055 47.7843 33.1086 47.8067 33.1149C47.8292 33.1212 47.845 33.1274 47.8543 33.1338L47.8683 33.1432L47.8283 33.2222C47.8261 33.2202 47.8226 33.2179 47.8179 33.2151C47.8133 33.2123 47.804 33.2086 47.7901 33.204C47.7761 33.1993 47.762 33.197 47.7477 33.197C47.725 33.197 47.7047 33.2007 47.6868 33.2078C47.6688 33.2151 47.6547 33.2246 47.6442 33.2366C47.6337 33.2484 47.6257 33.2612 47.6203 33.2748C47.6148 33.2886 47.6121 33.3025 47.6121 33.3167C47.6121 33.3476 47.6238 33.3754 47.6471 33.4C47.6705 33.4246 47.7041 33.4369 47.7477 33.4369ZM48.0302 33.113V33.4393H48.1718V33.5209H47.9365V33.113H48.0302ZM48.5666 33.113V33.376C48.5666 33.4261 48.553 33.4639 48.5257 33.4897C48.4984 33.5154 48.4586 33.5283 48.4061 33.5283C48.3535 33.5283 48.3137 33.5154 48.2864 33.4897C48.2592 33.4639 48.2455 33.4261 48.2455 33.376V33.113H48.3393V33.3489C48.3393 33.3817 48.3445 33.4047 48.3549 33.4176C48.3654 33.4304 48.3824 33.4369 48.4061 33.4369C48.4297 33.4369 48.4468 33.4304 48.4572 33.4176C48.4676 33.4047 48.4729 33.3817 48.4729 33.3489V33.113H48.5666ZM48.8053 33.1055C48.8275 33.1055 48.8493 33.1087 48.8705 33.1152C48.8919 33.1216 48.9076 33.128 48.918 33.1342L48.933 33.1441L48.895 33.2182C48.892 33.2163 48.8878 33.2138 48.8824 33.2106C48.8772 33.2075 48.8673 33.2033 48.8526 33.1981C48.838 33.1927 48.8243 33.1901 48.8118 33.1901C48.7961 33.1901 48.7841 33.1934 48.7755 33.2C48.7671 33.2066 48.7629 33.2156 48.7629 33.2266C48.7629 33.2324 48.7649 33.2375 48.7688 33.2423C48.7729 33.247 48.7797 33.2521 48.7893 33.2576C48.799 33.263 48.8075 33.2673 48.8147 33.2706C48.8221 33.274 48.8334 33.2788 48.8486 33.2855C48.8753 33.2968 48.8978 33.312 48.9166 33.3313C48.9354 33.3506 48.9449 33.3724 48.9449 33.3967C48.9449 33.4202 48.9407 33.4406 48.9321 33.4581C48.9236 33.4756 48.912 33.4893 48.8972 33.4991C48.8824 33.509 48.8661 33.5163 48.8481 33.5211C48.8302 33.5258 48.8107 33.5283 48.7898 33.5283C48.7719 33.5283 48.7542 33.5264 48.737 33.5228C48.7197 33.5192 48.7052 33.5146 48.6935 33.5093C48.6819 33.5038 48.6714 33.4985 48.6621 33.4932C48.6528 33.4879 48.646 33.4835 48.6416 33.4798L48.6352 33.4744L48.6821 33.3963C48.686 33.3996 48.6915 33.4038 48.6985 33.409C48.7054 33.4141 48.7179 33.4208 48.7356 33.4295C48.7535 33.438 48.7692 33.4423 48.7829 33.4423C48.8224 33.4423 48.8421 33.429 48.8421 33.4022C48.8421 33.3965 48.8407 33.3914 48.8379 33.3866C48.8351 33.3818 48.8301 33.3771 48.8229 33.3724C48.8158 33.3676 48.8094 33.3638 48.8039 33.3609C48.7984 33.3581 48.7895 33.3538 48.777 33.3481C48.7646 33.3423 48.7554 33.338 48.7494 33.3349C48.7245 33.3228 48.7052 33.3075 48.6916 33.2892C48.6779 33.2709 48.6711 33.2513 48.6711 33.2302C48.6711 33.1936 48.6848 33.1637 48.712 33.1404C48.7393 33.1171 48.7703 33.1055 48.8053 33.1055ZM49.1147 33.113V33.5209H49.021V33.113H49.1147ZM49.3356 33.5209L49.163 33.113H49.2688L49.3725 33.381L49.4762 33.113H49.5819L49.4094 33.5209H49.3356ZM49.8654 33.113V33.1946H49.7238V33.2756H49.8594V33.3572H49.7238V33.4393H49.8654V33.5209H49.6301V33.113H49.8654Z" fill="white"/>
<defs>
<filter id="filter0_f_2_1883" x="41.9655" y="28.8153" width="6.13435" height="5.55171" filterUnits="userSpaceOnUse" color-interpolation-filters="sRGB">
<feFlood flood-opacity="0" result="BackgroundImageFix"/>
<feBlend mode="normal" in="SourceGraphic" in2="BackgroundImageFix" result="shape"/>
<feGaussianBlur stdDeviation="0.653949" result="effect1_foregroundBlur_2_1883"/>
</filter>
<linearGradient id="paint0_linear_2_1883" x1="293" y1="55.5" x2="14" y2="55.5" gradientUnits="userSpaceOnUse">
<stop stop-color="#999999" stop-opacity="0"/>
<stop offset="0.486385" stop-color="#A9CBFE"/>
<stop offset="1" stop-color="white" stop-opacity="0"/>
</linearGradient>
<linearGradient id="paint1_linear_2_1883" x1="0" y1="22" x2="299" y2="22" gradientUnits="userSpaceOnUse">
<stop stop-color="#010101"/>
<stop offset="0.277067" stop-color="#171717"/>
<stop offset="1" stop-color="#CBCBCB"/>
</linearGradient>
<linearGradient id="paint2_linear_2_1883" x1="18.9231" y1="-83.6327" x2="-1.49919" y2="-79.1515" gradientUnits="userSpaceOnUse">
<stop stop-color="#8BAAFF"/>
<stop offset="0.934668" stop-color="#D9A8FF"/>
</linearGradient>
<linearGradient id="paint3_linear_2_1883" x1="46.4637" y1="30.3607" x2="44.1863" y2="32.9385" gradientUnits="userSpaceOnUse">
<stop stop-color="#8929E2"/>
<stop offset="1" stop-color="#371DBF"/>
</linearGradient>
</defs>
</svg>
