<svg width="23" height="29" viewBox="0 0 23 29" fill="none" xmlns="http://www.w3.org/2000/svg">
<g clip-path="url(#clip0_93_1283)">
<path d="M11.0515 15.0657C11.0515 15.4339 10.9032 15.7848 10.6335 16.0446L3.36093 23.0529C2.79908 23.5943 1.89112 23.5943 1.33377 23.0529C0.776411 22.5115 0.771916 21.6365 1.33377 21.0994L7.59054 15.0657L1.33377 9.03638C0.789894 8.48195 0.812369 7.607 1.38321 7.0829C1.93607 6.57612 2.80806 6.57612 3.36093 7.0829L10.6335 14.0868C10.9032 14.3467 11.0515 14.6976 11.0515 15.0657Z" fill="white"/>
<path d="M22.1057 15.0609C22.1057 15.5028 21.9304 15.9239 21.6064 16.2358L13.0183 24.6474C12.3544 25.2972 11.2815 25.2972 10.6229 24.6474C9.95903 23.9975 9.95903 22.9474 10.6229 22.3028L18.0161 15.0609L10.6229 7.82428C9.98027 7.15884 10.0121 6.1087 10.692 5.47965C11.3452 4.8766 12.365 4.8766 13.0183 5.47965L21.6117 13.886C21.9304 14.1979 22.1057 14.619 22.1057 15.0609Z" fill="white"/>
</g>
<defs>
<clipPath id="clip0_93_1283">
<rect width="29" height="23" fill="white" transform="translate(0 29) rotate(-90)"/>
</clipPath>
</defs>
</svg>
