<svg width="23" height="29" viewBox="0 0 23 29" fill="none" xmlns="http://www.w3.org/2000/svg">
<g clip-path="url(#clip0_93_1277)">
<path d="M12.2063 15.0657C12.2063 15.4339 12.3546 15.7848 12.6243 16.0446L19.8969 23.0529C20.4587 23.5943 21.3667 23.5943 21.924 23.0529C22.4814 22.5115 22.4859 21.6365 21.924 21.0994L15.6673 15.0657L21.924 9.03638C22.4679 8.48195 22.4454 7.607 21.8746 7.0829C21.3217 6.57612 20.4497 6.57612 19.8969 7.0829L12.6243 14.0868C12.3546 14.3467 12.2063 14.6976 12.2063 15.0657Z" fill="white"/>
<path d="M1.15215 15.0609C1.15215 15.5028 1.32742 15.9239 1.6514 16.2358L10.2396 24.6474C10.9035 25.2972 11.9763 25.2972 12.6349 24.6474C13.2988 23.9975 13.2988 22.9474 12.6349 22.3028L5.24175 15.0609L12.6349 7.82428C13.2775 7.15884 13.2457 6.1087 12.5658 5.47965C11.9126 4.8766 10.8928 4.8766 10.2396 5.47965L1.64609 13.886C1.32742 14.1979 1.15215 14.619 1.15215 15.0609Z" fill="white"/>
</g>
<defs>
<clipPath id="clip0_93_1277">
<rect width="29" height="23" fill="white" transform="matrix(4.37114e-08 -1 -1 -4.37114e-08 23 29)"/>
</clipPath>
</defs>
</svg>
