<svg width="80" height="80" viewBox="0 0 80 80" fill="none" xmlns="http://www.w3.org/2000/svg">
<g clip-path="url(#clip0_2_1872)">
<path d="M67.5 45C68.1771 45 68.763 45.2474 69.2578 45.7422C69.7526 46.237 70 46.8229 70 47.5C70 48.1771 69.7526 48.763 69.2578 49.2578C68.763 49.7526 68.1771 50 67.5 50C66.8229 50 66.237 49.7526 65.7422 49.2578C65.2474 48.763 65 48.1771 65 47.5C65 46.8229 65.2474 46.237 65.7422 45.7422C66.237 45.2474 66.8229 45 67.5 45ZM43.9453 44.2578C41.888 42.8516 39.6745 41.7969 37.3047 41.0938C34.9349 40.3906 32.5 40.026 30 40C27.7083 40 25.4948 40.2995 23.3594 40.8984C21.224 41.4974 19.2318 42.3307 17.3828 43.3984C15.5339 44.4661 13.8542 45.7682 12.3438 47.3047C10.8333 48.8411 9.53125 50.5339 8.4375 52.3828C7.34375 54.2318 6.4974 56.224 5.89844 58.3594C5.29948 60.4948 5 62.7083 5 65H0C0 61.9531 0.455729 58.9714 1.36719 56.0547C2.27865 53.138 3.59375 50.4427 5.3125 47.9688C7.03125 45.4948 9.07552 43.2943 11.4453 41.3672C13.8151 39.4401 16.4583 37.9688 19.375 36.9531C17.9167 36.0156 16.6146 34.9349 15.4688 33.7109C14.3229 32.487 13.3333 31.1458 12.5 29.6875C11.6667 28.2292 11.0547 26.6927 10.6641 25.0781C10.2734 23.4635 10.0521 21.7708 10 20C10 17.2396 10.5208 14.6484 11.5625 12.2266C12.6042 9.80469 14.0234 7.68229 15.8203 5.85938C17.6172 4.03646 19.7396 2.60417 22.1875 1.5625C24.6354 0.520833 27.2396 0 30 0C32.7604 0 35.3516 0.520833 37.7734 1.5625C40.1953 2.60417 42.3177 4.02344 44.1406 5.82031C45.9635 7.61719 47.3958 9.73958 48.4375 12.1875C49.4792 14.6354 50 17.2396 50 20C50 21.7448 49.7917 23.4245 49.375 25.0391C48.9583 26.6536 48.3333 28.2031 47.5 29.6875C46.6667 31.1719 45.6901 32.513 44.5703 33.7109C43.4505 34.9089 42.1354 35.9896 40.625 36.9531C42.7344 37.7083 44.7656 38.75 46.7188 40.0781L43.9453 44.2578ZM15 20C15 22.0833 15.3906 24.0234 16.1719 25.8203C16.9531 27.6172 18.0208 29.2057 19.375 30.5859C20.7292 31.9661 22.3177 33.0469 24.1406 33.8281C25.9635 34.6094 27.9167 35 30 35C32.0573 35 33.9974 34.6094 35.8203 33.8281C37.6432 33.0469 39.2318 31.9792 40.5859 30.625C41.9401 29.2708 43.0208 27.6823 43.8281 25.8594C44.6354 24.0365 45.026 22.0833 45 20C45 17.9427 44.6094 16.0026 43.8281 14.1797C43.0469 12.3568 41.9792 10.7682 40.625 9.41406C39.2708 8.0599 37.6693 6.97917 35.8203 6.17188C33.9714 5.36458 32.0312 4.97396 30 5C27.9167 5 25.9766 5.39062 24.1797 6.17188C22.3828 6.95312 20.7943 8.02083 19.4141 9.375C18.0339 10.7292 16.9531 12.3307 16.1719 14.1797C15.3906 16.0286 15 17.9688 15 20ZM65 35C67.0573 35 68.9974 35.3906 70.8203 36.1719C72.6432 36.9531 74.2318 38.0208 75.5859 39.375C76.9401 40.7292 78.0208 42.3307 78.8281 44.1797C79.6354 46.0286 80.026 47.9688 80 50C80 52.0833 79.6094 54.0234 78.8281 55.8203C78.0469 57.6172 76.9792 59.2057 75.625 60.5859C74.2708 61.9661 72.6693 63.0469 70.8203 63.8281C68.9714 64.6094 67.0312 65 65 65C63.3073 65 61.6406 64.7005 60 64.1016V70H55V75H50V80H35V68.9844L50.4297 53.5156C50.1432 52.3177 50 51.1458 50 50C50 47.9427 50.3906 46.0026 51.1719 44.1797C51.9531 42.3568 53.0208 40.7682 54.375 39.4141C55.7292 38.0599 57.3177 36.9792 59.1406 36.1719C60.9635 35.3646 62.9167 34.974 65 35ZM65 60C66.3802 60 67.6693 59.7396 68.8672 59.2188C70.0651 58.6979 71.1328 57.9818 72.0703 57.0703C73.0078 56.1589 73.724 55.1042 74.2188 53.9062C74.7135 52.7083 74.974 51.4062 75 50C75 48.6198 74.7396 47.3307 74.2188 46.1328C73.6979 44.9349 72.9818 43.8672 72.0703 42.9297C71.1589 41.9922 70.1042 41.276 68.9062 40.7812C67.7083 40.2865 66.4062 40.026 65 40C63.6198 40 62.3307 40.2604 61.1328 40.7812C59.9349 41.3021 58.8672 42.0182 57.9297 42.9297C56.9922 43.8411 56.276 44.8958 55.7812 46.0938C55.2865 47.2917 55.026 48.5938 55 50C55 50.9115 55.1172 51.7448 55.3516 52.5C55.5859 53.2552 55.8594 54.0495 56.1719 54.8828L40 71.0156V75H45V70H50V65H55V61.4453L58.6328 57.8516C59.6745 58.4505 60.6771 58.9583 61.6406 59.375C62.6042 59.7917 63.724 60 65 60Z" fill="white"/>
</g>
<defs>
<clipPath id="clip0_2_1872">
<rect width="80" height="80" fill="white"/>
</clipPath>
</defs>
</svg>
