<svg width="58" height="36" viewBox="0 0 58 36" fill="none" xmlns="http://www.w3.org/2000/svg">
<rect x="0.633911" y="1.11243" width="55.7842" height="34.2312" stroke="url(#paint0_linear_93_1118)" stroke-width="1.26782"/>
<path fill-rule="evenodd" clip-rule="evenodd" d="M38.4924 10.8352C38.9545 11.2884 38.9617 12.0304 38.5085 12.4924L26.5554 24.6799C26.3364 24.9032 26.0372 25.0297 25.7244 25.0312C25.4117 25.0328 25.1113 24.9092 24.8901 24.688L19.0307 18.8286C18.5731 18.371 18.5731 17.629 19.0307 17.1714C19.4884 16.7137 20.2304 16.7137 20.688 17.1714L25.7107 22.194L36.8352 10.8513C37.2884 10.3892 38.0304 10.382 38.4924 10.8352Z" fill="url(#paint1_linear_93_1118)"/>
<defs>
<linearGradient id="paint0_linear_93_1118" x1="-26.0182" y1="-207.121" x2="-78.5131" y2="-187.412" gradientUnits="userSpaceOnUse">
<stop stop-color="#8BAAFF" stop-opacity="0"/>
<stop offset="0.245" stop-color="#9FA9FF"/>
<stop offset="0.84" stop-color="#D1A8FF"/>
<stop offset="0.934668" stop-color="#D9A8FF" stop-opacity="0.15"/>
</linearGradient>
<linearGradient id="paint1_linear_93_1118" x1="18.688" y1="10.5" x2="18.688" y2="25.031" gradientUnits="userSpaceOnUse">
<stop stop-color="#E100FF"/>
<stop offset="1" stop-color="#7F00FF"/>
</linearGradient>
</defs>
</svg>
