<svg width="62" height="74" viewBox="0 0 62 74" fill="none" xmlns="http://www.w3.org/2000/svg">
<path d="M30 0.667969C33.6367 0.667969 37.0567 1.6413 40 3.34797C40.3983 3.55635 40.7504 3.84316 41.0351 4.19114C41.3197 4.53912 41.531 4.94109 41.6563 5.37285C41.7815 5.80461 41.8181 6.25724 41.7639 6.70353C41.7097 7.14981 41.5658 7.58051 41.3408 7.96973C41.1158 8.35895 40.8144 8.69863 40.4548 8.96835C40.0951 9.23807 39.6846 9.43225 39.248 9.53921C38.8113 9.64616 38.3575 9.66368 37.9139 9.59072C37.4703 9.51776 37.0461 9.35581 36.6667 9.11463C34.6393 7.94412 32.3394 7.32803 29.9984 7.32831C27.6574 7.32858 25.3577 7.94522 23.3306 9.11622C21.3035 10.2872 19.6204 11.9713 18.4506 13.9991C17.2808 16.0269 16.6656 18.3269 16.6667 20.668L53.3333 20.6713C55.1014 20.6713 56.7971 21.3737 58.0474 22.6239C59.2976 23.8742 60 25.5699 60 27.338V60.6713C60 62.4394 59.2976 64.1351 58.0474 65.3853C56.7971 66.6356 55.1014 67.338 53.3333 67.338H6.66667C4.89856 67.338 3.20286 66.6356 1.95262 65.3853C0.702379 64.1351 0 62.4394 0 60.6713V27.3346C0 25.5665 0.702379 23.8708 1.95262 22.6206C3.20286 21.3703 4.89856 20.668 6.66667 20.668H10C10 15.3636 12.1071 10.2766 15.8579 6.52583C19.6086 2.77511 24.6957 0.667969 30 0.667969ZM53.3333 27.3346H6.66667V60.668H53.3333V27.3346ZM30 34.0013C31.422 34.0018 32.8065 34.4569 33.9515 35.3001C35.0964 36.1434 35.9417 37.3307 36.3639 38.6885C36.7861 40.0464 36.7631 41.5036 36.2982 42.8474C35.8334 44.1913 34.951 45.3513 33.78 46.158L33.3333 46.4413V50.668C33.3324 51.5176 33.0071 52.3347 32.4238 52.9525C31.8406 53.5703 31.0435 53.9421 30.1954 53.9919C29.3472 54.0417 28.5121 53.7657 27.8606 53.2204C27.209 52.6751 26.7903 51.9016 26.69 51.058L26.6667 50.668V46.4413C25.3958 45.7075 24.4026 44.5748 23.841 43.219C23.2795 41.8632 23.181 40.36 23.5608 38.9425C23.9406 37.525 24.7775 36.2724 25.9418 35.379C27.106 34.4856 28.5325 34.0014 30 34.0013ZM56.3933 10.738L59.6133 11.6046C60.4343 11.8617 61.1242 12.4261 61.5386 13.1801C61.953 13.934 62.0599 14.8189 61.8369 15.6498C61.6139 16.4807 61.0783 17.1932 60.342 17.6383C59.6058 18.0834 58.726 18.2266 57.8867 18.038L54.67 17.178C53.8197 16.9462 53.0957 16.387 52.6566 15.6229C52.2174 14.8587 52.0988 13.9517 52.3266 13.1003C52.5545 12.2489 53.1102 11.5224 53.8723 11.0797C54.6344 10.637 55.5409 10.5141 56.3933 10.738ZM52.11 0.967968C52.5329 1.0813 52.9293 1.27682 53.2766 1.54337C53.6239 1.80993 53.9153 2.14229 54.1342 2.52147C54.353 2.90066 54.495 3.31924 54.5521 3.75331C54.6091 4.18738 54.5801 4.62845 54.4667 5.0513L54.0367 6.65797C53.9252 7.08262 53.7308 7.48105 53.4649 7.83039C53.199 8.17973 52.8666 8.47309 52.487 8.69363C52.1073 8.91416 51.6879 9.05752 51.2527 9.11548C50.8175 9.17344 50.3751 9.14485 49.951 9.03135C49.5268 8.91786 49.1293 8.72169 48.7812 8.45413C48.4331 8.18656 48.1413 7.85286 47.9226 7.4722C47.7038 7.09153 47.5624 6.6714 47.5065 6.23593C47.4505 5.80046 47.4812 5.35823 47.5967 4.93464L48.03 3.32464C48.2589 2.47132 48.8172 1.74379 49.5823 1.3019C50.3473 0.860003 51.2565 0.739896 52.11 0.967968Z" fill="white"/>
</svg>
