<svg width="64" height="64" viewBox="0 0 64 64" fill="none" xmlns="http://www.w3.org/2000/svg">
<path d="M25.3333 15.3333L23.6133 19.98C21.36 26.0733 20.2333 29.12 18.01 31.3433C15.7867 33.5667 12.74 34.6933 6.64667 36.9467L2 38.6667L6.64667 40.3867C12.74 42.64 15.7867 43.77 18.01 45.99C20.2333 48.21 21.36 51.26 23.6133 57.3533L25.3333 62L27.0533 57.3533C29.3067 51.26 30.4367 48.2133 32.6567 45.99C34.8767 43.7667 37.9267 42.64 44.02 40.3867L48.6667 38.6667L44.02 36.9467C37.9267 34.6933 34.88 33.5667 32.6567 31.3433C30.4333 29.12 29.3067 26.0733 27.0533 19.98L25.3333 15.3333ZM52 2L51.2633 3.99C50.2967 6.60333 49.8133 7.91 48.8633 8.86C47.91 9.81333 46.6033 10.2967 43.99 11.26L42 12L43.9933 12.7367C46.6033 13.7033 47.91 14.1867 48.86 15.1367C49.8133 16.09 50.2967 17.3967 51.26 20.01L52 22L52.7367 20.01C53.7033 17.3967 54.1867 16.09 55.1367 15.14C56.09 14.1867 57.3967 13.7033 60.01 12.74L62 12L60.0067 11.2633C57.3967 10.2967 56.09 9.81333 55.14 8.86333C54.1867 7.91 53.7033 6.60333 52.74 3.99L52 2Z" stroke="white" stroke-width="4" stroke-linecap="round" stroke-linejoin="round"/>
</svg>
